<svg xmlns="http://www.w3.org/2000/svg" viewBox="0 0 200 100">
  <g transform="matrix(1 0 0 .99582 -4.67 -162.68)">
    <path d="M4.7 163.36a100 100 0 0 0-.03.42 100 100 0 0 0 100 100 100 100 0 0 0 100-100 100 100 0 0 0-.01-.42z" fill="#e67e22"/>
    <path d="M17.2 163.36a87.5 87.5 0 0 0-.03.37 87.5 87.5 0 0 0 87.5 87.5 87.5 87.5 0 0 0 87.5-87.5 87.5 87.5 0 0 0-.01-.37z" fill="#fad390"/>
    <circle r="10" cy="180.08" cx="50.71" fill="#e84118"/>
    <circle r="10" cy="207.24" cx="63.27" fill="#e84118"/>
    <circle r="10" cy="182.04" cx="94.91" fill="#e84118"/>
    <circle r="10" cy="193.38" cx="133.07" fill="#e84118"/>
    <circle r="10" cy="228.33" cx="107.41" fill="#e84118"/>
    <circle r="10" cy="218.52" cx="141.75" fill="#e84118"/>
    <circle r="10" cy="178.31" cx="174.12" fill="#e84118"/>
  </g>
</svg>