<svg xmlns="http://www.w3.org/2000/svg" viewBox="0 0 200 100">
  <g fill="#fad390" stroke="none" stroke-width="0">
    <path d="M10.54 28.34q2.16-1.36 3.63-3.78 1.48-2.38 1.48-4.15 0-.9-.46-1.36-.41-.45-1.24-.45-1.7 0-3.03 2-1.36 2.04-1.36 4.68 0 1.02.23 1.77.23.72.75 1.32zM8.43 32.7q-2 .99-4.05 1.51-2 .5-4.08.57l.83-2.8q1.44-.07 2.65-.37 1.2-.3 2.34-.76Q5.37 29.81 5 28.5q-.38-1.32-.38-3.14 0-4.15 2.8-7.17 2.87-3.05 6.69-3.05 2.15 0 3.4 1.28 1.28 1.28 1.28 3.5 0 2.46-1.81 5.4-1.78 2.95-4.76 5.22.87.79 1.89 1.13 1.02.37 2.53.37h.26l-.75 2.76h-.6q-2.31 0-4.09-.5-1.74-.52-3.02-1.58z"/>
    <path d="M36.24 19.47q-.6-.42-1.13-.65-.57-.18-1.13-.18-1.21 0-2.8 1.05-1.59 1.06-3.02 2.87-1.33 1.66-2.12 3.55-.76 1.89-.76 3.28 0 1.02.38 1.51.3.46 1.06.46 2 0 4.42-3.02 2.46-3.02 5.07-8.87zm-2.15 7.85q-2.2 3.92-4.38 5.73-2.16 1.82-4.65 1.82-1.17 0-2.08-.3-.87-.35-1.36-.99-1.06.57-2.38.87-1.33.3-3.1.38l.83-2.83q1.13-.04 2.04-.27.9-.22 1.63-.64l-.12-.9-.04-1.02q0-1.7.76-3.74t2.08-4q2.08-3.02 4.53-4.53 2.57-1.59 5.26-1.59 1.36 0 2.3.38.98.38 1.9 1.29l.26-.95q.26-.83.53-1.05.26-.23.75-.23 1.48 0 2.53.49 1.06.45 1.06 1.13 0 .19-.87 1.96-.9 1.74-1.58 3.29-1.37 3.13-2.08 5.36-.68 2.22-.68 3.4 0 .82.53 1.16.49.3 2.34.5l-.8 2.75h-.37q-3.25 0-4.58-.68-1.32-.68-1.32-2.3 0-.76.23-1.78.26-1.05.83-2.71z"/>
    <path d="M47.58 29.58q.76.3 1.32.9.57.61.95 1.52 1.93-.38 3.02-1.97 1.14-1.54 1.14-3.96 0-.94-.2-1.96-.18-1.06-.56-2.34-.83 1.77-2.27 3.77-1.5 2.08-3.4 4.04zm-8.24 5.21l.76-2.8q2-.22 5.21-3.73 3.22-3.51 6.66-9.36-.38-.38-.6-.87-.16-.49-.16-1.13 0-1.62 1.25-2.8 1.24-1.13 2.98-1.13 1.02 0 1.63.53.6.57.6 1.51 0 .83-.49 1.74-.53.87-1.55 1.74 1.82 2.03 2.65 3.77.75 1.7.75 3.47 0 1.66-.56 3.21-.53 1.51-1.52 2.57.46.26 1.06.37.64.12 1.51.12h.42l-.8 2.79h-.6q-1.13 0-2.23-.23-1.06-.22-2.11-.68-1.25.5-2.42.76-1.14.23-2.2.23-1.62 0-3.02-.5-1.51-.52-2.42-1.5-1.02.79-2.23 1.28-1.17.45-2.57.64z"/>
    <path d="M65.27 33.13q-1.59.75-3.14 1.13-1.51.45-3.02.53l.83-2.8q1.25-.03 2.38-.37 1.13-.34 2.23-.94.04-2 .57-4.3.49-2.3 1.66-5.44 1.36-3.78 2.04-4.87.72-1.1 1.47-1.1 1.6 0 2.42.38.84.38.84 1.13 0 .46-.87 2.34-.91 1.9-1.36 3.02-1.14 2.68-1.6 4.38-.45 1.7-.45 3.02 0 .76.3 1.13.35.42.99.42 1.51 0 3.51-2.27 2-2.34 3.67-6.15.83-1.8 1.63-4.41.83-2.76 2.07-2.76 1.21 0 2.12.45.9.42.9 1.14 0 .37-.52 1.5-.38.87-.53 1.4l-4.69 12.87q1.14-.22 3.9-.53h.37l-.79 2.76q-1.93.19-2.95.38l-1.77.37q-1.4 5.02-3.18 7.44-1.78 2.42-3.97 2.42-1.1 0-1.66-.53-.57-.57-.57-1.59 0-1.92 1.48-3.77 1.5-1.89 3.97-3.02l1.88-4.83q.87-2.3 1.63-4.53-2.2 4.04-4.3 5.89-2.09 1.88-4.43 1.88-1.02 0-1.89-.53-.87-.49-1.13-1.24z"/>
    <path d="M101.25 33.5q-1.17 3.18-2.46 8.76l-.19.95q-.26 1.1-1.02 1.47-.75.38-2.72.38-.53 0-.87-.2-.38-.18-.38-.48 0-.76 1.29-4.38 1.28-3.55 2.04-6.23-.76.5-1.59.76-.83.22-1.89.26l.76-2.8q4.08-.26 6.35-10.56l.11-.5.76-3.69q.98-5.28 3.85-5.28.98 0 1.44.18.45.23.45.72 0 .53-1.4 4.68l-1.85 5.7q2.65-4.53 4.61-6.34 2-1.77 4.23-1.77 2.16 0 3.52 1.5 1.4 1.52 1.4 3.86 0 2.71-1.51 5.5-1.55 2.76-4.46 5.29.9.38 2.07.57 1.14.15 2.54.15l-.8 2.79h-.56q-1.7 0-3.14-.34-1.44-.38-2.65-1.1-1.13.57-2.26.87-1.14.3-2.27.3-.87 0-1.7-.26-.87-.26-1.74-.75zm1.24-3.24q.84-.38 1.63-.57.76-.18 1.51-.18.68 0 1.4.15.76.15 1.62.49 2.08-1.89 3.3-4.15 1.2-2.27 1.2-4.27 0-1.32-.57-2.04-.56-.75-1.5-.75-1.9 0-4.28 3.1-2.34 3.05-4.3 8.22z"/>
    <path d="M125.81 28.34q2.12-1.36 3.6-3.78 1.5-2.38 1.5-4.15 0-.9-.45-1.36-.45-.45-1.28-.45-1.7 0-3.03 2-1.32 2.04-1.32 4.68 0 1.02.23 1.77.22.72.75 1.32zm-2.15 4.37q-2 .99-4 1.51-2.05.5-4.09.57l.83-2.8q1.4-.07 2.65-.37 1.17-.3 2.34-.76-.8-1.05-1.17-2.37-.38-1.32-.38-3.14 0-4.15 2.84-7.17 2.83-3.05 6.68-3.05 2.16 0 3.4 1.28 1.25 1.28 1.25 3.5 0 2.46-1.81 5.4-1.78 2.95-4.76 5.22.87.79 1.89 1.13 1.02.37 2.53.37h.3l-.83 2.76h-.57q-2.26 0-4.08-.5-1.74-.52-3.02-1.58z"/>
    <path d="M151.44 19.47q-.53-.42-1.14-.65-.49-.18-1.06-.18-1.24 0-2.83 1.05-1.55 1.06-3.02 2.87-1.33 1.66-2.12 3.55-.76 1.89-.76 3.28 0 1.02.38 1.51.34.46 1.06.46 2.04 0 4.46-3.02t5.03-8.87zm-2.12 7.85q-2.2 3.92-4.38 5.73-2.16 1.82-4.65 1.82-1.17 0-2.08-.3-.87-.35-1.36-.99-1.02.57-2.35.87-1.36.3-3.13.38l.83-2.83q1.13-.04 2.04-.27.9-.22 1.63-.64l-.12-.9-.04-1.02q0-1.7.76-3.74t2.08-4q2.08-3.02 4.57-4.53 2.53-1.59 5.22-1.59 1.36 0 2.34.38.94.38 1.81 1.29l.3-.95q.27-.83.54-1.05.26-.23.79-.23 1.44 0 2.5.49 1.05.45 1.05 1.13 0 .19-.87 1.96-.9 1.74-1.58 3.29-1.37 3.13-2.08 5.36-.68 2.22-.68 3.4 0 .82.53 1.16.52.3 2.34.5l-.8 2.75h-.37q-3.25 0-4.58-.68-1.32-.68-1.32-2.3 0-.76.27-1.78.22-1.05.79-2.71z"/>
    <path d="M162.81 29.58q.76.3 1.32.9.6.61.95 1.52 1.93-.38 3.02-1.97 1.14-1.54 1.14-3.96 0-.94-.2-1.96-.18-1.06-.56-2.34-.83 1.77-2.27 3.77-1.5 2.08-3.4 4.04zm-8.24 5.21l.76-2.8q2.04-.22 5.21-3.73 3.22-3.51 6.66-9.36-.38-.38-.6-.87-.16-.49-.16-1.13 0-1.62 1.25-2.8 1.24-1.13 2.98-1.13 1.02 0 1.63.53.64.57.64 1.51 0 .83-.53 1.74-.53.87-1.55 1.74 1.82 2.03 2.65 3.77.75 1.7.75 3.47 0 1.66-.56 3.21-.53 1.51-1.52 2.57.46.26 1.06.37.64.12 1.51.12h.42l-.8 2.79h-.6q-1.13 0-2.23-.23-1.02-.22-2.08-.68-1.28.5-2.45.76-1.14.23-2.2.23-1.58 0-3.02-.5-1.51-.52-2.42-1.5-1.02.79-2.19 1.28-1.2.45-2.6.64z"/>
    <path d="M180.5 33.13q-1.55.75-3.14 1.13-1.51.45-2.98.53l.79-2.8q1.25-.03 2.38-.37 1.13-.34 2.23-.94.04-2 .57-4.3.53-2.3 1.66-5.44 1.36-3.78 2.04-4.87.76-1.1 1.47-1.1 1.63 0 2.46.38.8.38.8 1.13 0 .46-.87 2.34-.91 1.9-1.36 3.02-1.14 2.68-1.6 4.38-.45 1.7-.45 3.02 0 .76.3 1.13.35.42 1.03.42 1.5 0 3.47-2.27 2-2.34 3.67-6.15.83-1.8 1.63-4.41.83-2.76 2.07-2.76 1.25 0 2.12.45.9.42.9 1.14 0 .37-.48 1.5l-.57 1.4-4.69 12.87q1.14-.22 3.9-.53h.37l-.8 2.76q-1.92.19-2.94.38l-1.74.37q-1.43 5.02-3.2 7.44-1.75 2.42-3.98 2.42-1.1 0-1.66-.53-.57-.57-.57-1.59 0-1.92 1.51-3.77 1.48-1.89 3.93-3.02l1.9-4.83 1.66-4.53q-2.23 4.04-4.31 5.89-2.12 1.88-4.46 1.88-1.02 0-1.89-.53-.87-.49-1.13-1.24z"/>
    <g>
      <path d="M.64 56.19h10.89L8.3 59.32v24.35h.2l.83.07h.18v-24.2l2.46-2.48.34.49-2.23 2.26v23.93l1.97.08q3.62 0 5.48-1.59 1.89-1.62 2.5-5.28 2.14 6.19 4.41 8.45H.65l3.13-2.56V59.06zm26.04 29.06l-1.02 2.04H1.86l-.57-.64h24.1l.69-1.44q-2.53-3.05-4.05-6.83l-.07-.26.75.26.16.38q1.5 3.4 3.62 6.23z"/>
      <path d="M47.28 56.19l-2.34 2.68 3.74 9.93.9-.5-3.4-8.98 2.42-2.75.6.26-2.26 2.64 3.17 8.5.3-.27.76-.6.87-.76q.57 2.57 1.82 4.6l-.95-.03q-2.2 0-3.17.68l4.15 11.17 3.4 2.64H45.77l3.13-2.64-2.53-6.64q-2.5 2.53-3.85 4.8l-.53-.12q1.36-2.27 4.04-4.98l.15-.23-.41-1.02q-2.72 2.26-4.5 5.25l-.38-.68q-1.2-1.89-3.06-4.3l-.23-.27q-1.77 3.89-1.77 6.34 0 1.44.49 2.42.5.98 2.38 3.32l.5.64H26.86l-.45-.64h11.6l-.38-.46q-1.51-1.84-1.96-2.83-.46-1.01-.46-2.37 0-2.34 1.9-6.95L36.08 73l-.75 2.15-.76 2.34q-.6 1.88-.6 3.1 0 1.27.41 2.1.46.84 1.85 2.27l.38.45H25.28q3.25-1.66 5.14-4.53 1.93-2.83 3.78-8.8l.12-.3q-1.21-1.01-3.48-1.24 1.25-1.89 1.89-3.89.38.27.41.38l1.03.95q.52.49 1.24 1.01l.42-1.01-.27-.23-1.89-1.62-.22-.16.38-.49q1.2.76 2.3 1.85l3.1-8.53-2.42-2.6zm-5.63 7.32l-2.5 6.6.23.27.95 1.06q.75.83 1.89 2.53l.22.37q.98-1.24 2.34-2.45zm-1.02-2.64L37 70.42q1.74 1.77 3.02 3.5l1.02 1.48.23.3.23-.26.34-.38.22-.3q-1.58-2.45-3.7-4.45l2.91-7.7zm13.41 6.53q.5 2.04 2.5 5.62l-.57-.07-1.85-.15-1.81-.12h-.46l3.78 10.12 5.1 4.49H47.58l-.45-.64h12.1l-4.09-3.63-4.04-10.71q.75-.2 1.77-.2 1.21 0 2.72.2l-.26-.5q-1.47-2.67-1.97-4.83z"/>
      <path d="M87.57 56.19q-2.57 1.36-3.33 2.45-1.13 1.74-1.13 5.25V85.4h-3.86L68.48 64.57v13.36l.23 3.28q.45 2.27 2.08 3.4l.19.15q-3.14-1.06-3.14-6.72v-14.6l-1.21-2.38v13.1q0 6.22.83 8.19.8 1.92 3.86 2.83l1.96 2.1H60.92l-.38-.63H72l-1.21-1.25H60.2q2.76-.98 3.67-2.68.9-1.7.9-5.77V58.72l-3.02-2.53h11.53l-3.25 2.19 11.04 21.47v-2.71l-9.45-18.42 3.17-2.15.46.41-2.84 1.93 8.7 16.98V64.04q0-3.96-.69-5.28-.64-1.32-3.2-2.57zm.79 1.7l-.38.68q-1.77.37-2.42 1.5-.6 1.14-.6 3.74V87.3h-4.91l-.3-.64h4.6V64q0-3.17.8-4.41.87-1.29 3.21-1.7z"/>
      <path d="M113.6 56.9l-.22.42q-2.08 3.59-3.55 7.17l-.23.53-.3-.19q-.53-3.43-2.42-5.47-1.93-2.04-4.65-2.04-2.87 0-4.84 2.53-2.42 3.17-2.42 10.68 0 6.46 2.23 10.12 2.27 3.66 6.24 3.66 3.21 0 5.1-2.12 1.9-2.15 2.27-6.11.07-.94.75-.94.91 0 .91 1.5 0 2.2-.98 4.54-2.16 5.01-8.77 5.01-5.93 0-9.45-4.15-3.47-4.15-3.47-11.2 0-6.57 3.62-10.95 3.63-4.46 9.04-4.46 2.53 0 5.78 1.25 1.74.68 2.83.68 1.21 0 2.2-.68zm-6.6 3.93q-2.09-1.66-3.9-1.66-5.93 0-5.93 11.25 0 5.13 1.36 8.53 1.4 3.4 3.85 4.41v.23q-2.64-.57-4.3-4.15-1.6-3.59-1.6-9.06 0-11.77 6.5-11.77 2.16 0 4.01 1.92zm7.44 15.67q-.38 5.66-3.18 8.6-2.76 2.94-7.78 2.94-3.78 0-7.1-2.37v-.15q2.9 1.88 7.06 1.88 4.5 0 7.33-2.87 1.4-1.43 2.08-3.17.64-1.77.87-4.64l.04-.53zm.83-18.5l-.23.42q-2.5 4.26-3.97 7.73l-.64-.3.27-.56q1.13-2.38 2-3.97l1.81-3.24.23-.38z"/>
      <path d="M117.38 56.19h10.7l-3.1 3.02v9.85l1.25.15v-9.77l2.5-2.46.45.42-2.35 2.34v9.47l.76.08q1.74.15 3.4.15 2.34 0 4.04-.23V58.76l-2.76-2.57h10.51l-3.14 3.02v23.78l2.76 2.41h-10.47l3.1-2.64V73.1q-1.89.45-3.93.45-1.89 0-3.96-.23h-.3v9.63l3.77 4.34h-11.83l-.56-.64h11.1l-3.1-3.4V72.8l.65.03q3.02.23 4.38.23 2.2 0 3.78-.57v-.83q-2.11.3-4.98.3-1.52 0-2.23-.07l-2.27-.19-.57-.04V83l2.95 2.41h-10.58l3.1-2.64V72.8q-1.93 0-3.07 1.5l-.49-.22q1.33-1.66 3.56-1.89v-.79q-2.57 0-4.05 1.89l-.38-.2q1.36-3.28 4.43-3.88V58.98zm26.38 1.28l-2.34 2.27v23.2l3.78 4.35h-11.83l-.57-.64h11.12l-3.03-3.4V59.47l2.5-2.49z"/>
      <path d="M170.9 56.19l-.38.45q-2.27 2.83-3.66 6.53l-.38-.75q-1.21-2.76-2.65-3.55-1.43-.8-5.18-.8-1.7 0-4.08.12v10.45h1.44V59.4q1.74-.2 3.32-.2 2.88 0 4.28.65 1.36.6 2.41 2.38l-.45-.34q-1.85-1.47-2.65-1.74-.83-.26-3.25-.26l-2.6.07-.5.04v8.68h4.2l2.95-4.07v9.8l-2.95-3.76h-6.2V83.4h1.44V71.7h4.95l.6.6h-4.98v11.1q4.68 0 6.6-.64 1.97-.68 3.1-2.64l1.22-2.04.26-.49q.6 2.5 1.48 4 .87 1.51 2.9 3.51H146.6l3.44-2.64v-10.2q-1.9.27-3.44 1.22l-.34-.5q1.4-.98 3.78-1.28v-1.05l-.53-.08q-2.34 0-4.23 1.74 1.02-3.67 4.76-3.67v-9.7l-3.44-2.75zm1.13 1.58l-.19.23q-2.8 3.74-3.7 6.27l-.38-.5q1.51-3.5 3.93-6.45zm-6.72 7.6v10.07l-.57-.3V65.06zm9.44 19.84l-1.2 2.08h-24.91l-.38-.64h24.98l.76-1.44q-3.25-3.02-4.61-6.41l.75.22q1.25 2.95 4.24 5.85z"/>
      <path d="M196.6 56.45q-1.17 1.59-1.9 3.33-1.39 3.4-1.84 4.15l-.12.19-.11-.38q-.64-2.08-1.06-2.87-.41-.8-1.25-1.51-2.07-1.89-4.72-1.89-2.42 0-4.04 1.4-1.63 1.32-1.63 3.4 0 3.8 5.78 5.2l3.86.95q8.24 1.96 8.24 8.68 0 3.7-2.84 6.26-2.8 2.53-6.95 2.53-2.6 0-5.82-.79l-2.65-.68q-1.66-.38-2.68-.38-1.4 0-2.87.9l-.2-.37q2.84-4.26 3.98-8.11l.38.11q.49 3.59 2.9 5.59 2.39 1.96 6.28 1.96 3.02 0 4.84-1.4 1.81-1.43 1.81-3.8 0-2.76-2.53-4.54-1.78-1.32-7.37-2.41-4.31-.83-6.24-2.8-1.96-1.96-1.96-5.43 0-3.59 2.6-5.81 2.58-2.27 6.73-2.27 2.65 0 6.24.94 1.66.46 2.45.46 1.14 0 2.46-.76zm1.43.95l-.22.37q-.95 1.51-1.59 2.99-1.59 3.36-1.81 3.73l-.12.15-.53-.22.08-.2q.68-1.5 1.89-3.92l1.59-3.02.1-.18zm-6.69 4.53q-2.49-2.65-5.36-2.65-1.74 0-2.87.99-1.14 1.01-1.14 2.56 0 1.66 2.27 3.44l.23.11-.12.19q-3.02-1.32-3.02-3.89 0-1.77 1.28-2.87 1.29-1.13 3.33-1.13 1.97 0 3.4.83 1.51.83 2.2 2.34zm5.3 9.05q3.06 2.34 3.06 6.42 0 4.34-3.4 7.36-3.33 3.02-8.17 3.02-2.45 0-4.46-.5l-3.63-.9q-1.28-.3-2.75-.3-1.29 0-2.38.53l-.27-.68q1.17-.53 2.42-.53 1.36 0 3.1.38l3.51.87q2.12.49 4.42.49 4.54 0 7.75-2.9 3.21-2.91 3.21-7.03 0-3.47-2.45-6.11zm-16.26 6.53q.84 4.16 4.54 5.82v.19q-4.27-1.21-5.18-5.85zm-2.87-7.36l.76.42q.75 1.36 4.42 2.26l3.67.91q3.78.9 4.98 1.62 1.25.64 1.78 2l-.15.12q-1.02-1.21-2.27-1.74-1.13-.57-4.53-1.36-4.95-1.13-6.65-1.96-1.67-.83-2-2.27z"/>
    </g>
  </g>
</svg>