<svg xmlns="http://www.w3.org/2000/svg" viewBox="0 0 64 64">
  <g fill="#e84118">
    <path d="M23.62 56.23H56.5V7.77H23.62c-.73 0-1.32-.61-1.32-1.37V1.37C22.3.6 22.89 0 23.62 0h39.06C63.41 0 64 .61 64 1.37v61.26c0 .76-.6 1.37-1.32 1.37H23.62c-.73 0-1.32-.61-1.32-1.37V57.6c0-.76.59-1.37 1.32-1.37z"/>
    <path d="M51.9 31.06L34.13 13.29c-.5-.5-1.37-.5-1.87 0l-4.22 4.21a1.32 1.32 0 0 0 0 1.87l8.03 8.03H1.32C.59 27.4 0 28 0 28.72v6.54c0 .73.6 1.32 1.32 1.32h34.75l-8.02 8.03a1.32 1.32 0 0 0 0 1.87l4.21 4.22a1.32 1.32 0 0 0 1.87 0L51.9 32.93a1.32 1.32 0 0 0 0-1.87z"/>
  </g>
</svg>