<svg xmlns="http://www.w3.org/2000/svg" viewBox="0 0 64 64">
  <g fill="#e84118">
    <path d="M40.38 56.23H7.5V7.77h32.88c.73 0 1.32-.61 1.32-1.37V1.37C41.7.6 41.11 0 40.38 0H1.32C.59 0 0 .61 0 1.37v61.26C0 63.4.6 64 1.32 64h39.06c.73 0 1.32-.61 1.32-1.37V57.6c0-.76-.59-1.37-1.32-1.37z"/>
    <path d="M63.61 31.06L45.84 13.29c-.5-.5-1.37-.5-1.87 0l-4.22 4.21a1.32 1.32 0 0 0 0 1.87l8.03 8.03H13.03c-.73 0-1.32.6-1.32 1.32v6.54c0 .73.6 1.32 1.32 1.32h34.75l-8.02 8.03a1.32 1.32 0 0 0 0 1.87l4.21 4.22a1.32 1.32 0 0 0 1.87 0l17.77-17.77a1.32 1.32 0 0 0 0-1.87z"/>
  </g>
</svg>