<svg xmlns="http://www.w3.org/2000/svg" viewBox="0 0 64 64">
  <g fill="#e84118">
    <path d="M62.35 54.42l-25.1-25.1L7.9 0H5.6l-.47 1.19a21.01 21.01 0 0 0-1.52 9.28 13.1 13.1 0 0 0 3.67 8.37l22.9 22.9 3.03-3.03 21.17 23.66a5.69 5.69 0 0 0 7.96 0 5.63 5.63 0 0 0 0-7.95z"/>
    <path d="M19.58 36.43L1.65 54.36A5.63 5.63 0 0 0 9.6 62.3L27.55 44.4z"/>
    <path d="M61.3 10.66L51.12 20.82l-2.65-2.65L58.64 8 56 5.35 45.82 15.52l-2.66-2.65L53.34 2.7 50.68.05 37.41 13.3a9.36 9.36 0 0 0-2.73 6.07 5.4 5.4 0 0 1-.38 1.69l8.62 8.62a5.4 5.4 0 0 1 1.7-.39 9.37 9.37 0 0 0 6.06-2.73l13.27-13.26z"/>
  </g>
</svg>