<svg xmlns="http://www.w3.org/2000/svg" viewBox="0 0 46.26 19.66">
  <path d="M14.66.29c.24 0 .47.02.7.07h6.9c.22 0 .88 0 1.62.18V.33l1.74.03 5.33.07c.53 0 2.78 0 3.86 1.46a7.33 7.33 0 0 1 9.3.91A7.31 7.31 0 0 1 46.25 8v4.48a3.29 3.29 0 0 1-3.3 3.3c-.79 0-1.5-.25-2.09-.68l-.38.07c-.51.08-1.03.17-1.58.17-1.42 0-2.74-.4-3.87-1.1v1.1H27.1l-.14-.02-.1-.01-.6-.09v.12h-1.67c-.02 0-4.82 0-6.08-.07a4.9 4.9 0 0 1-2.29-.55c-.44.26-.96.4-1.55.4-.85 0-1.58-.33-2.14-.86-.31-.3-.56-.66-.74-1.05a7.33 7.33 0 0 1-5.09 1.44l-.01 1.94v.08l-.02.15c-.08.88-.5 1.6-1.1 2.1a3.46 3.46 0 0 1-4.54-.18A3.25 3.25 0 0 1 0 16.36V7.34a7.34 7.34 0 0 1 12.01-5.68A3.3 3.3 0 0 1 14.66.3z" fill="#e84118"/>
  <path d="M16.18 11.74v-8.3c0-.8-.65-1.44-1.52-1.44-.8 0-1.52.65-1.52 1.44l.08 8.38v.21c.07.73.65 1.38 1.44 1.38.87 0 1.38-.65 1.45-1.45.07-.07.07-.14.07-.22zM1.71 16V7.34a5.65 5.65 0 0 1 11.29 0c0 3.1-2.53 5.63-5.64 5.63-.44 0-.87-.07-1.3-.14v-3.4a3 3 0 0 0 1.37.36c1.3 0 2.39-1.08 2.39-2.45.07-1.3-1.09-2.38-2.4-2.38-1.22 0-2.24.8-2.38 1.95v.14l-.07 9.53v.07c-.08.8-.8 1.3-1.6 1.3-.94 0-1.66-.72-1.66-1.58zm42.84-3.9V8a5.65 5.65 0 0 0-11.29 0c0 3.1 2.53 5.63 5.65 5.63.43 0 .86-.07 1.3-.14v-3.4c-.36.22-.87.36-1.3.36A2.44 2.44 0 0 1 36.45 8c0-1.3 1.08-2.38 2.46-2.38 1.23 0 2.17.79 2.38 1.95v5.2c.15.79.8 1.3 1.67 1.3.87 0 1.6-.73 1.6-1.6zM25.6 2.08l5.36.07c.43 0 2.75 0 2.75 1.73 0 1.38-.44 1.88-.66 2.24-.21.36-3.9 4.55-3.9 4.55l4.2.07v2.9h-6.16c-.5-.08-2.1-.15-2.1-1.74 0-1.3.58-1.8 1.02-2.24.36-.43 3.9-4.33 3.9-4.33l-4.4.07V2.07zm-8.68 0h5.35c.36 0 2.68 0 2.68 1.8 0 1.3-.36 1.8-.65 2.24-.22.36-3.84 4.55-3.84 4.55h4.2l-.07 2.96s-5.57 0-6.08-.07c-.5 0-2.17-.07-2.17-1.66 0-1.3.65-1.8 1.01-2.24.44-.43 3.98-4.33 3.98-4.33h-4.41z" clip-rule="evenodd" fill="#f5f6fa" fill-rule="evenodd"/>
</svg>