<svg xmlns="http://www.w3.org/2000/svg" viewBox="0 0 512 512">
  <g class='pizza-loader'>
    <g fill="#fe841a">
      <path d="M147.15 29.16l14.7 25.48 188.31.01 14.7-25.44c-69.78-40.3-152.58-37.56-217.71-.05z"/>
      <path d="M114.02 48.33C44.24 88.61 5.2 161.7 5.12 236.85H34.6l94.13-163.04-14.7-25.48z"/>
      <path d="M34.59 275.13H5.16c0 80.57 43.77 150.91 108.82 188.56l14.73-25.5-94.12-163.06z"/>
      <path d="M350.14 457.36l-188.3-.01-14.7 25.44c69.78 40.29 152.58 37.56 217.71.04l-14.7-25.47z"/>
      <path d="M477.41 275.15l-94.13 163.04 14.7 25.48c69.78-40.28 108.82-113.36 108.9-188.52H477.4z"/>
      <path d="M398.02 48.31l-14.73 25.5 94.12 163.06h29.43c0-80.56-43.76-150.91-108.82-188.56z"/>
    </g>
    <g fill="#ffe368">
      <path d="M350.16 54.65A221.38 221.38 0 0 0 256 33.75c-33.66 0-65.56 7.5-94.14 20.9L256 217.71l94.16-163.07z"/>
      <path d="M128.72 73.8c-52.5 36.75-88.37 95.6-94.13 163.05l188.26.01-94.13-163.05z"/>
      <path d="M34.59 275.13c5.75 67.45 41.62 126.3 94.12 163.05l94.14-163.04-188.26-.01z"/>
      <path d="M161.84 457.35c28.6 13.4 60.5 20.9 94.16 20.9s65.56-7.5 94.14-20.9L256 294.28l-94.16 163.08z"/>
      <path d="M477.41 275.15l-188.26-.01 94.13 163.05c52.5-36.74 88.38-95.59 94.13-163.04z"/>
      <path d="M477.41 236.87c-5.75-67.45-41.62-126.3-94.12-163.05l-94.14 163.04 188.26.01z"/>
    </g>
    <g fill="#ad4a38">
      <circle cx="256" cy="140.02" r="8.44"/>
      <circle cx="73.44" cy="206.72" r="8.44"/>
      <circle cx="147.14" cy="205.6" r="8.44"/>
      <circle cx="160.08" cy="324.37" r="8.44"/>
      <circle cx="250.94" cy="363.54" r="8.44"/>
      <circle cx="350.18" cy="311.56" r="8.44"/>
      <circle cx="390.02" cy="388.86" r="8.44"/>
      <circle cx="390.02" cy="122.44" r="8.44"/>
    </g>
    <g fill="#f63e31">
      <circle cx="256" cy="88.32" r="20.57"/>
      <circle cx="110.78" cy="172.16" r="20.57"/>
      <circle cx="110.78" cy="339.84" r="20.57"/>
      <circle cx="256" cy="423.68" r="20.57"/>
      <circle cx="401.22" cy="339.84" r="20.57"/>
      <circle cx="401.22" cy="172.16" r="20.57"/>
    </g>
  </g>
</svg>